<svg width="160" height="201" viewBox="0 0 160 201" fill="none" xmlns="http://www.w3.org/2000/svg">
<g clip-path="url(#clip0_7681_6844)">
<path d="M157.063 72.1035H3.39152L3.375 160.324H157.063V72.1035Z" fill="#E9E8E8"/>
<path opacity="0.35" d="M126.067 72.1035H81.8448L14.4453 160.302H90.0904L126.067 72.1035Z" fill="white"/>
<path opacity="0.6" d="M156.927 142.69L3.60742 142.707V143.885L156.927 143.748V142.69Z" fill="#F9F9F9"/>
<path opacity="0.6" d="M156.927 103.155L3.60742 103.172V104.351L156.927 104.213V103.155Z" fill="#F9F9F9"/>
<path d="M128.179 160.28L127.897 104.351H127.23L127.514 160.282L128.179 160.28Z" fill="#C3C4C7"/>
<path d="M104.398 160.286L104.088 104.354H103.365L103.675 160.288L104.398 160.286Z" fill="#C3C4C7"/>
<path d="M80.4632 159.623L80.1739 104.352H79.5005L79.7897 159.626L80.4632 159.623Z" fill="#C3C4C7"/>
<path d="M79.7856 122.341L79.9509 158.535H80.615L80.4508 122.341H79.7856Z" fill="#D2D2D2"/>
<path d="M56.6029 160.166L56.3106 104.35H55.6299L55.9181 160.166H56.6029Z" fill="#C3C4C7"/>
<path d="M56.6119 122.432L55.9209 122.435L56.0606 158.535L56.7516 158.532L56.6119 122.432Z" fill="#D2D2D2"/>
<path d="M32.4491 104.348H31.7715L32.0597 160.161H32.7383L32.4491 104.348Z" fill="#C3C4C7"/>
<path d="M156.927 103.464L156.914 102.785L3.60748 103.074V103.753L156.927 103.464Z" fill="#C3C4C7"/>
<path d="M145.759 141.966L121.465 142.055H120.769L96.4781 142.147H95.7829L71.4914 142.239H70.7962L46.5056 142.331H45.8053L21.5168 142.423H20.8206L3.60742 142.489V143.11L20.8278 143.02H21.523L45.8136 142.93H46.5087L70.8014 142.839H71.4975L95.7871 142.744H96.4864L120.774 142.652H121.469L145.764 142.562H146.459L156.926 142.523V141.966H146.452H145.759Z" fill="#C3C4C7"/>
<path d="M84.0935 119.786H22.2778V160.301H84.0935V119.786Z" fill="#4075A5"/>
<path d="M83.2109 121.827L24.6582 121.648V160.301L83.2109 160.019V121.827Z" fill="#B7AE9F"/>
<path d="M82.2029 121.827L24.6582 121.648V160.301H82.6376L82.2029 121.827Z" fill="#95CBEC"/>
<path d="M82.8753 123.468L24.6582 123.289V160.3H82.8753V123.468Z" fill="#C8E1F0"/>
<path d="M76.8527 125.961L76.1182 125.897L76.2053 160.256L76.9399 160.321L76.8527 125.961Z" fill="#95CBEC"/>
<path d="M55.1038 126.905H82.493L81.9765 123.47L24.6582 123.291V160.326H55.1038V126.905Z" fill="#95CBEC"/>
<g style="mix-blend-mode:overlay" opacity="0.4">
<path d="M38.084 160.302L61.5658 121.988L79.4348 121.812L66.974 160.302H38.084Z" fill="#C8E1F0"/>
</g>
<path d="M49.4347 120.991H48.2871V160.325H49.4347V120.991Z" fill="#4075A5"/>
<path d="M84.0951 120.991H82.0645V160.301H84.0951V120.991Z" fill="#4075A5"/>
<path d="M82.8838 135.031H48.8799V136.18H82.8838V135.031Z" fill="#4075A5"/>
<path d="M65.3987 160.302H65.9596L65.9007 135.132H65.3398L65.3987 160.302Z" fill="#4075A5"/>
<path d="M68.4948 148.896H65.8506V153.514H68.4948V148.896Z" fill="#4075A5"/>
<path d="M65.4206 148.896H62.7764V153.514H65.4206V148.896Z" fill="#4075A5"/>
<path d="M157.063 72.1035H3.39152L3.375 102.92H157.063V72.1035Z" fill="#F3F3F3"/>
<path d="M156.705 68.3262H3.8363C2.69539 68.3262 1.77051 69.2521 1.77051 70.3944C1.77051 71.5366 2.69539 72.4626 3.8363 72.4626H156.705C157.846 72.4626 158.771 71.5366 158.771 70.3944C158.771 69.2521 157.846 68.3262 156.705 68.3262Z" fill="#989898"/>
<path d="M157.221 102.452H3.31985C2.46417 102.452 1.77051 103.146 1.77051 104.003C1.77051 104.859 2.46417 105.554 3.31985 105.554H157.221C158.077 105.554 158.771 104.859 158.771 104.003C158.771 103.146 158.077 102.452 157.221 102.452Z" fill="#989898"/>
<path d="M84.1031 87.4544C84.5645 87.5887 84.9672 87.8745 85.246 88.2658C85.5249 88.6571 85.6638 89.131 85.6401 89.6109C85.6401 91.3716 84.4657 92.2711 82.5973 92.2711H78.8262V83.3066H82.4019C84.3368 83.3066 85.4236 83.911 85.3843 85.5629C85.3917 85.9722 85.2726 86.3739 85.0433 86.7132C84.814 87.0524 84.4857 87.3127 84.1031 87.4585M80.5677 84.6876V86.9357H82.3263C82.4828 86.9575 82.6422 86.9445 82.7931 86.8977C82.9441 86.851 83.0828 86.7716 83.1996 86.6651C83.3164 86.5587 83.4084 86.4279 83.469 86.282C83.5295 86.136 83.5572 85.9786 83.5501 85.8207C83.5501 84.891 82.9971 84.7127 82.3132 84.6785L80.5677 84.6876ZM80.5677 88.2784V90.8388H82.3243C83.2308 90.879 83.7727 90.5366 83.7475 89.5636C83.7213 88.5564 83.1603 88.2471 82.3374 88.2784H80.5677Z" fill="#6B6B6B"/>
<path d="M86.8751 83.3027H92.5609V84.7401H88.6669V86.9429H92.4078V88.3258H88.6669V90.8369H92.715V92.2742H86.873L86.8751 83.3027Z" fill="#6B6B6B"/>
<path d="M94.3 90.3413C95.059 90.7411 95.9028 90.9531 96.7607 90.9597C98.0107 90.9597 98.4931 90.5145 98.4931 89.9323C98.4747 89.7302 98.4 89.5373 98.2776 89.3755C98.1551 89.2136 97.9897 89.0894 97.8002 89.0168C97.0951 88.6713 96.2651 88.4356 95.4835 88.1274C94.3574 87.5825 93.7762 87.0748 93.7762 85.7271C93.7762 84.1307 94.9758 83.1667 97.1897 83.1667C98.215 83.1429 99.2303 83.3719 100.146 83.8335L99.5416 85.1701C98.824 84.781 98.0191 84.581 97.2028 84.5889C96.0526 84.5889 95.5832 84.9858 95.5832 85.5781C95.5764 85.7056 95.5985 85.833 95.6476 85.9509C95.6968 86.0687 95.7719 86.174 95.8673 86.2589C96.0423 86.3969 96.2334 86.5132 96.4363 86.6054C97.0306 86.8653 97.921 87.1493 98.6523 87.4837C99.1427 87.6425 99.5668 87.9591 99.8583 88.3842C100.15 88.8093 100.292 89.319 100.264 89.8336C100.264 91.4291 98.9544 92.4182 96.7889 92.4182C95.6969 92.4145 94.6197 92.1664 93.6362 91.692L94.3 90.3413Z" fill="#6B6B6B"/>
<path d="M101.025 83.3027H108.093V84.7391H105.482V92.2742H103.689V84.7391H101.024L101.025 83.3027Z" fill="#6B6B6B"/>
<path d="M112.817 90.3413C113.576 90.7411 114.42 90.9531 115.278 90.9597C116.527 90.9597 117.01 90.5145 117.01 89.9323C116.992 89.7301 116.918 89.5371 116.795 89.3752C116.673 89.2134 116.507 89.0892 116.317 89.0168C115.612 88.6713 114.784 88.4356 114.001 88.1274C112.876 87.5825 112.288 87.0748 112.288 85.7271C112.288 84.1307 113.488 83.1667 115.703 83.1667C116.728 83.1429 117.744 83.3719 118.659 83.8335L118.055 85.1701C117.338 84.7809 116.533 84.5809 115.717 84.5889C114.567 84.5889 114.096 84.9858 114.096 85.5781C114.09 85.7057 114.112 85.8332 114.161 85.9511C114.211 86.0689 114.286 86.1742 114.382 86.2589C114.557 86.397 114.748 86.5134 114.951 86.6054C115.544 86.8653 116.434 87.1493 117.167 87.4837C117.657 87.6425 118.081 87.9591 118.373 88.3842C118.664 88.8093 118.807 89.319 118.778 89.8336C118.778 91.4291 117.469 92.4182 115.302 92.4182C114.209 92.4137 113.131 92.1645 112.147 91.689L112.817 90.3413Z" fill="#6B6B6B"/>
<path d="M120.194 83.3027H121.983V87.0446H125.676V83.3027H127.467V92.2671H125.676V88.4789H121.983V92.2742H120.194V83.3027Z" fill="#6B6B6B"/>
<path d="M136.644 87.8032C136.644 90.848 135.264 92.376 132.405 92.376C129.473 92.376 128.5 90.563 128.5 87.7165C128.5 84.6596 129.856 83.1558 132.714 83.1558C135.609 83.1558 136.643 84.9305 136.643 87.8032M130.322 87.8646C130.322 89.5769 130.79 90.987 132.367 90.987C134.227 90.987 134.769 89.7914 134.769 87.6339C134.769 85.9448 134.326 84.5115 132.724 84.5115C130.938 84.5115 130.322 85.7323 130.322 87.8646Z" fill="#6B6B6B"/>
<path d="M141.294 83.3028H137.929V92.2672H139.722V88.9927H141.468C141.862 89.027 142.259 88.9754 142.632 88.8415C143.004 88.7075 143.343 88.4943 143.625 88.2167C143.908 87.939 144.126 87.6034 144.266 87.2331C144.406 86.8628 144.464 86.4666 144.436 86.0717C144.457 84.2295 143.391 83.3008 141.294 83.3008M141.165 87.6067H139.723V84.6857H141.11C141.299 84.6713 141.488 84.696 141.667 84.7581C141.846 84.8203 142.01 84.9186 142.149 85.0469C142.288 85.1753 142.399 85.3309 142.475 85.5041C142.551 85.6773 142.591 85.8643 142.592 86.0536C142.559 86.7727 142.327 87.6339 141.164 87.6067" fill="#6B6B6B"/>
<path d="M49.918 83.2911V84.6076H51.731V84.945C51.7791 85.546 51.5971 86.1428 51.2218 86.6146C50.8465 87.0864 50.3059 87.398 49.7095 87.4862L50.2665 88.7413C50.7617 88.6477 51.2322 88.4525 51.6483 88.168C52.0643 87.8835 52.4169 87.5159 52.6838 87.0884C52.9375 87.4934 53.2702 87.8431 53.662 88.1167C54.0538 88.3903 54.4967 88.5822 54.9642 88.6808L55.6693 87.2475C54.3841 86.9685 53.4534 86.2715 53.4534 84.9359V84.6076H55.2382V83.2911H49.918ZM58.1773 83.1118H56.5134V85.0054H54.9501V86.3702H56.5134V89.8271H57.9779C58.1094 89.2279 58.177 88.6164 58.1793 88.003L58.1773 83.1118ZM58.3465 91.0619H53.4453C53.3154 91.0619 53.2761 91.0317 53.2761 90.8927V88.9498H51.6121V91.5686C51.5965 91.6839 51.6081 91.8013 51.646 91.9114C51.6839 92.0214 51.747 92.121 51.8303 92.2023C51.9136 92.2836 52.0148 92.3442 52.1258 92.3793C52.2368 92.4144 52.3544 92.4231 52.4693 92.4046H58.3485L58.3465 91.0619ZM59.2933 83.282V84.5914H61.1859V85.219C61.1859 86.8819 60.8485 87.9274 59.1231 88.6849L59.7718 89.8402C60.7671 89.5027 61.6012 88.8069 62.1116 87.8881C62.6063 88.7422 63.3804 89.3996 64.3033 89.7495L65.0809 88.3958C64.3872 88.2198 63.7791 87.802 63.3661 87.2176C62.953 86.6332 62.7621 85.9205 62.8277 85.2079V84.5874H64.669V83.278L59.2933 83.282ZM68.9346 85.5816H67.2817V83.1118H65.6863V92.4066H67.0823C67.2221 91.6723 67.2895 90.9261 67.2837 90.1786V86.9192H68.9366L68.9346 85.5816Z" fill="#6B6B6B"/>
<path d="M36.1322 92.2706H39.9346V90.527H35.6417V83.3062H33.5698V92.2706H36.1322Z" fill="#6B6B6B"/>
<path d="M44.4955 88.8551H46.1826V90.4223C45.7003 90.5809 45.1956 90.6611 44.6879 90.66C42.8225 90.66 42.201 89.7112 42.201 87.7874C42.201 85.9532 42.7922 84.8664 44.6577 84.8664C45.0615 84.8329 45.4672 84.9022 45.837 85.0677C46.2069 85.2333 46.5288 85.4897 46.7728 85.8132L48.0631 84.6378C47.65 84.132 47.1201 83.7343 46.5192 83.4788C45.9182 83.2234 45.2642 83.1178 44.6133 83.1712C41.7115 83.1712 40.1865 84.7556 40.1865 87.7753C40.1865 90.795 41.5624 92.4086 44.5972 92.4086C45.8208 92.4472 47.031 92.1445 48.0923 91.5343V87.183H44.4955V88.8551Z" fill="#6B6B6B"/>
<path d="M22.9427 81.5801C21.7133 81.5813 20.5118 81.9464 19.4896 82.6292C18.4673 83.3121 17.67 84.2823 17.1982 85.4175C16.7263 86.5527 16.601 87.8022 16.838 89.0085C17.075 90.2148 17.6638 91.3239 18.53 92.1962C19.3963 93.0685 20.5014 93.6649 21.706 93.9103C22.9107 94.1556 24.161 94.039 25.2994 93.575C26.4378 93.111 27.4135 92.3205 28.1034 91.303C28.7934 90.2855 29.1668 89.0865 29.1765 87.8572V87.7565C29.1621 86.1129 28.499 84.5415 27.3314 83.3847C26.1638 82.2278 24.5863 81.5792 22.9427 81.5801Z" fill="url(#paint0_radial_7681_6844)"/>
<path d="M18.7292 83.5928C16.6482 85.6737 16.4387 88.8455 18.2649 90.6737C20.091 92.5018 23.2628 92.2913 25.3437 90.2093C27.4247 88.1274 27.6392 84.9525 25.8131 83.1244C25.4026 82.7208 24.916 82.403 24.3815 82.1892C23.847 81.9755 23.2753 81.8702 22.6997 81.8795C21.2021 81.9039 19.7749 82.5204 18.7292 83.5928Z" fill="url(#paint1_linear_7681_6844)"/>
<path d="M22.6295 90.6011L22.7836 90.5125V85.2487L22.7453 85.1872L22.7836 85.1761V85.1681H22.8108L23.2771 85.0089L23.3597 85.152C23.3681 85.1636 23.372 85.1779 23.3708 85.1922L23.3658 89.9827H24.4929L24.5835 90.1247C24.5951 90.1418 24.6001 90.1626 24.5976 90.1831V90.6646C24.5985 90.6748 24.5952 90.685 24.5886 90.6929C24.582 90.7008 24.5726 90.7059 24.5624 90.7069H22.8309C22.7999 90.7064 22.7695 90.6973 22.7433 90.6807L22.6295 90.6011ZM28.2489 87.523H24.3911V88.1394L24.4919 88.2673C24.5011 88.2753 24.5129 88.2796 24.5251 88.2794H27.7483C27.6812 89.1747 27.3589 90.032 26.8196 90.7498C26.2803 91.4676 25.5466 92.0157 24.7053 92.3294C23.8641 92.643 22.9506 92.7089 22.073 92.5194C21.1955 92.3298 20.3906 91.8927 19.7538 91.2598C18.8807 90.3824 18.3883 89.1963 18.3834 87.9585C18.3785 86.7206 18.8615 85.5307 19.7276 84.6463C20.619 83.765 21.8232 83.2725 23.0767 83.2765H23.3295H23.3577C23.3748 83.2765 23.3909 83.2765 23.3909 83.2352V82.7316C23.3918 82.7126 23.3873 82.6937 23.3779 82.6772L23.264 82.5352L23.0072 82.5724L22.8783 82.6147C22.1891 82.6262 21.5091 82.7743 20.8777 83.0505C20.2462 83.3266 19.6758 83.7254 19.1996 84.2237C18.7234 84.7219 18.3508 85.3097 18.1034 85.953C17.856 86.5963 17.7388 87.2823 17.7585 87.9712C17.8095 89.3475 18.3934 90.6501 19.3868 91.604C20.3802 92.5579 21.7054 93.0884 23.0826 93.0836C24.4598 93.0787 25.7813 92.5389 26.768 91.5781C27.7547 90.6172 28.3294 89.3106 28.3707 87.9339V87.6318L28.2489 87.523ZM21.0421 85.0845C20.878 85.0857 20.718 85.1354 20.5822 85.2274C20.4463 85.3194 20.3408 85.4495 20.2788 85.6014C20.2168 85.7533 20.2011 85.9201 20.2338 86.0809C20.2664 86.2416 20.346 86.3891 20.4623 86.5048C20.5787 86.6204 20.7266 86.6991 20.8876 86.7307C21.0485 86.7624 21.2153 86.7458 21.3668 86.6829C21.5183 86.6199 21.6478 86.5136 21.739 86.3772C21.8301 86.2408 21.8789 86.0805 21.8791 85.9165C21.879 85.8063 21.857 85.6972 21.8146 85.5956C21.7721 85.4939 21.7099 85.4017 21.6317 85.3242C21.5534 85.2466 21.4606 85.1854 21.3585 85.1439C21.2564 85.1024 21.1472 85.0815 21.037 85.0825L21.0421 85.0845Z" fill="url(#paint2_linear_7681_6844)"/>
<path d="M22.7514 90.4782L22.6245 90.599H24.4929L24.3711 90.4731L22.7514 90.4782Z" fill="#505D66"/>
<path d="M24.371 90.1017L24.4928 89.9839H23.2711L23.125 90.1017H24.371Z" fill="#788C95"/>
<path d="M23.2712 85.0093H22.6245L22.7464 85.1241H23.1322L23.2712 85.0093Z" fill="#828E94"/>
<path d="M23.1359 90.0888L23.2708 89.98V85.0093L23.1318 85.1241L23.1359 90.0888Z" fill="url(#paint3_linear_7681_6844)"/>
<path d="M24.3711 90.1017V90.4734L24.493 90.5993V89.9839L24.3711 90.1017Z" fill="url(#paint4_linear_7681_6844)"/>
<path d="M22.6245 85.0093V90.5984L22.7514 90.4776L22.7454 85.1241L22.6245 85.0093Z" fill="#B0B8BD"/>
<path d="M20.1445 85.8197C20.1445 85.9804 20.1922 86.1375 20.2814 86.2712C20.3707 86.4048 20.4976 86.509 20.6461 86.5705C20.7945 86.6321 20.9579 86.6483 21.1156 86.617C21.2732 86.5857 21.4181 86.5084 21.5318 86.3948C21.6455 86.2812 21.723 86.1365 21.7545 85.9789C21.7859 85.8213 21.77 85.6579 21.7086 85.5093C21.6473 85.3608 21.5432 85.2338 21.4097 85.1443C21.2762 85.0549 21.1191 85.007 20.9584 85.0068C20.8515 85.0066 20.7456 85.0274 20.6469 85.0682C20.5481 85.1089 20.4583 85.1687 20.3827 85.2443C20.3071 85.3198 20.2471 85.4095 20.2062 85.5082C20.1654 85.607 20.1444 85.7128 20.1445 85.8197ZM21.6493 85.8197C21.6499 85.9569 21.6098 86.0912 21.534 86.2056C21.4581 86.32 21.3501 86.4093 21.2234 86.4622C21.0968 86.515 20.9573 86.5291 20.8227 86.5027C20.688 86.4762 20.5643 86.4103 20.4671 86.3134C20.3699 86.2165 20.3037 86.093 20.2768 85.9584C20.2499 85.8238 20.2636 85.6843 20.3161 85.5575C20.3687 85.4307 20.4576 85.3224 20.5718 85.2462C20.6859 85.1701 20.8201 85.1295 20.9574 85.1297C21.1399 85.1305 21.3148 85.2035 21.4436 85.3328C21.5725 85.4621 21.645 85.6371 21.6453 85.8197H21.6493Z" fill="url(#paint5_linear_7681_6844)"/>
<path d="M27.717 87.998H24.4939L24.374 88.125H27.5972L27.6606 88.0575L27.717 87.998Z" fill="#3F4C50"/>
<path d="M24.4895 87.6304L28.1005 87.6243L28.2223 87.5015H24.3687L24.4895 87.6304Z" fill="#839196"/>
<path d="M28.2214 87.8061V87.5039L28.0985 87.6268V87.8081C28.0979 88.8274 27.7952 89.8236 27.2286 90.6708C26.6619 91.5181 25.8568 92.1784 24.9151 92.5682C23.9733 92.958 22.9371 93.0599 21.9374 92.861C20.9377 92.6621 20.0195 92.1713 19.2987 91.4506C18.5779 90.7299 18.0869 89.8118 17.8878 88.8121C17.6886 87.8125 17.7903 86.7763 18.18 85.8344C18.5696 84.8926 19.2297 84.0874 20.0769 83.5206C20.924 82.9538 21.9202 82.6508 22.9395 82.65H23.1409L23.2608 82.5332H22.9435C21.8993 82.5334 20.8785 82.8432 20.0104 83.4235C19.1422 84.0038 18.4656 84.8285 18.0662 85.7933C17.6667 86.7581 17.5623 87.8197 17.7661 88.8438C17.97 89.868 18.4729 90.8087 19.2114 91.547C19.9498 92.2853 20.8906 92.7881 21.9148 92.9917C22.939 93.1953 24.0005 93.0907 24.9653 92.6911C25.93 92.2914 26.7545 91.6147 27.3347 90.7464C27.9148 89.8782 28.2244 88.8574 28.2244 87.8131L28.2214 87.8061Z" fill="url(#paint6_linear_7681_6844)"/>
<path d="M23.137 83.0298H23.0011H22.8721C21.6162 83.0493 20.4184 83.5622 19.5375 84.4578C18.6567 85.3533 18.1637 86.5595 18.165 87.8156C18.1664 89.0717 18.6619 90.2768 19.5446 91.1705C20.4273 92.0642 21.6262 92.5746 22.8822 92.5915H23.0041C24.2046 92.5733 25.3547 92.1052 26.2268 91.28C27.0989 90.4547 27.6296 89.3322 27.7139 88.1345V88.0025L27.6525 88.0579L27.589 88.1254C27.5282 89.0321 27.2036 89.9013 26.6552 90.626C26.1069 91.3506 25.3586 91.8992 24.5026 92.2042C23.6465 92.5093 22.72 92.5574 21.837 92.3427C20.9539 92.1281 20.1529 91.66 19.5323 90.9961C18.9118 90.3321 18.4989 89.5013 18.3444 88.6057C18.1899 87.7102 18.3005 86.789 18.6626 85.9556C19.0248 85.1221 19.6227 84.4126 20.3827 83.9144C21.1428 83.4163 22.0319 83.1511 22.9406 83.1517H23.2549L23.137 83.0298Z" fill="url(#paint7_linear_7681_6844)"/>
<path d="M24.4895 87.6304L24.3696 87.5015V88.1209L24.4895 87.994V87.6304Z" fill="#B0B8BD"/>
<path d="M23.1382 83.0304L23.258 83.1502V82.5298L23.1382 82.6466V83.0304Z" fill="url(#paint8_linear_7681_6844)"/>
<path d="M22.6929 85.0717V90.5299H24.4274V90.0434H23.1895V85.0717H22.6929ZM22.8742 82.5889C21.8453 82.601 20.843 82.9172 19.9934 83.4977C19.1438 84.0782 18.4849 84.897 18.0996 85.8511C17.7143 86.8053 17.6199 87.852 17.8282 88.8597C18.0365 89.8674 18.5382 90.7909 19.2702 91.5141C20.0022 92.2373 20.9317 92.7278 21.9418 92.9239C22.9519 93.12 23.9975 93.0129 24.9469 92.6161C25.8963 92.2193 26.7071 91.5505 27.2773 90.6939C27.8474 89.8374 28.1515 88.8313 28.1512 87.8023V87.5656H24.4324V88.0491H27.6556C27.6556 88.0602 27.6556 88.1105 27.6556 88.1196C27.5949 89.0395 27.2665 89.9216 26.7109 90.6572C26.1553 91.3929 25.3967 91.95 24.5285 92.26C23.6603 92.5701 22.7204 92.6194 21.8245 92.4021C20.9286 92.1847 20.1158 91.7102 19.4861 91.0368C18.8565 90.3634 18.4375 89.5206 18.2808 88.6121C18.124 87.7036 18.2363 86.7692 18.6039 85.9237C18.9715 85.0783 19.5782 84.3587 20.3495 83.8537C21.1208 83.3487 22.0229 83.0803 22.9448 83.0814H23.1935V82.5939H23.0002L22.8742 82.5889Z" fill="url(#paint9_radial_7681_6844)"/>
<path d="M20.2061 85.8191C20.2059 85.9669 20.2495 86.1115 20.3314 86.2345C20.4134 86.3575 20.53 86.4535 20.6665 86.5102C20.803 86.567 20.9532 86.582 21.0982 86.5533C21.2433 86.5247 21.3765 86.4537 21.4812 86.3493C21.5858 86.2449 21.6572 86.1119 21.6862 85.9669C21.7153 85.822 21.7007 85.6717 21.6443 85.5351C21.5879 85.3984 21.4923 85.2816 21.3695 85.1993C21.2467 85.117 21.1022 85.073 20.9544 85.0728C20.8562 85.0725 20.7588 85.0916 20.668 85.1291C20.5771 85.1665 20.4945 85.2216 20.425 85.291C20.3555 85.3604 20.3003 85.4429 20.2628 85.5337C20.2252 85.6245 20.2059 85.7209 20.2061 85.8191Z" fill="url(#paint10_radial_7681_6844)"/>
<path d="M21.0892 85.2061C21.2537 85.2078 21.4131 85.2637 21.5425 85.3653C21.4783 85.2813 21.397 85.212 21.3039 85.1619C21.2108 85.1118 21.1081 85.0822 21.0026 85.075C20.8972 85.0678 20.7914 85.0831 20.6924 85.12C20.5933 85.1569 20.5033 85.2145 20.4283 85.2889C20.3532 85.3634 20.2949 85.453 20.2573 85.5517C20.2196 85.6505 20.2035 85.7562 20.2099 85.8617C20.2163 85.9672 20.2451 86.0701 20.2944 86.1636C20.3438 86.257 20.4125 86.3389 20.496 86.4037C20.3953 86.2752 20.3403 86.1168 20.3398 85.9535C20.34 85.8552 20.3595 85.7579 20.3972 85.6672C20.4349 85.5764 20.4902 85.494 20.5598 85.4246C20.6293 85.3552 20.7119 85.3002 20.8028 85.2627C20.8936 85.2252 20.991 85.206 21.0892 85.2061Z" fill="white"/>
<path d="M23.1894 82.5947H22.9366C21.9059 82.596 20.8987 82.9027 20.0422 83.4761C19.1857 84.0494 18.5183 84.8638 18.1244 85.8162C17.7305 86.7687 17.6276 87.8165 17.8289 88.8273C18.0301 89.8382 18.5264 90.7667 19.2551 91.4957C19.2863 91.5279 19.3196 91.5571 19.3558 91.5883C18.4295 90.6208 17.914 89.332 17.9175 87.9925C17.9025 87.2899 18.0279 86.5914 18.2863 85.9379C18.5447 85.2843 18.9309 84.689 19.4224 84.1866C19.9138 83.6843 20.5006 83.2851 21.1483 83.0124C21.796 82.7398 22.4917 82.5991 23.1944 82.5988" fill="white"/>
<path d="M23.1895 90.0469C23.5963 90.1314 24.0121 90.1652 24.4273 90.1476V90.0469H23.1895Z" fill="white"/>
<path d="M23.1894 85.2288V85.0747H22.6929V90.5339C22.8541 88.7705 22.9063 86.9987 22.849 85.2288H23.1894Z" fill="white"/>
<path d="M28.1488 87.5699H24.4321V88.0533H24.5661V87.7038C25.7629 87.7715 26.9635 87.7263 28.1519 87.5688" fill="white"/>
<path d="M27.6577 88.0537C27.6577 88.0638 27.6577 88.1162 27.6577 88.1262C27.5972 89.0322 27.277 89.9016 26.7352 90.6303C26.1934 91.359 25.4531 91.9161 24.6029 92.2349C23.7527 92.5537 22.8287 92.6207 21.9413 92.428C21.054 92.2352 20.2411 91.7908 19.5998 91.1479C19.0246 90.5754 18.6081 89.8631 18.3911 89.0811C18.6715 90.0934 19.2769 90.9854 20.1142 91.6197C20.9514 92.254 21.974 92.5954 23.0244 92.5913C24.2394 92.5828 25.4045 92.1076 26.2788 91.2639C27.1531 90.4202 27.6695 89.2726 27.7212 88.0587L27.6577 88.0537Z" fill="white"/>
<g filter="url(#filter0_ii_7681_6844)">
<path fill-rule="evenodd" clip-rule="evenodd" d="M108.071 124.326C107.48 124.326 107 124.806 107 125.398V168.255C107 168.846 107.48 169.326 108.071 169.326H115C115 167.117 116.791 165.326 119 165.326H131C133.209 165.326 135 167.117 135 169.326H141.929C142.52 169.326 143 168.846 143 168.255V125.398C143 124.806 142.52 124.326 141.929 124.326H108.071Z" fill="#8E2770"/>
</g>
<path d="M116.314 139.189C114.604 139.189 113.425 137.866 113.425 135.724C113.425 133.591 114.604 132.322 116.314 132.322C118.015 132.322 119.194 133.591 119.194 135.724C119.194 137.866 118.015 139.189 116.314 139.189ZM116.314 138.271C117.412 138.271 118.123 137.272 118.123 135.724C118.123 134.176 117.412 133.231 116.314 133.231C115.207 133.231 114.505 134.176 114.505 135.724C114.505 137.272 115.207 138.271 116.314 138.271ZM120.39 139.063V132.439H122.406C123.882 132.439 124.935 132.943 124.935 134.446C124.935 135.895 123.882 136.552 122.442 136.552H121.443V139.063H120.39ZM121.443 135.715H122.343C123.396 135.715 123.9 135.31 123.9 134.446C123.9 133.564 123.36 133.285 122.298 133.285H121.443V135.715ZM126.046 139.063V132.439H129.97V133.321H127.099V135.157H129.52V136.048H127.099V138.181H130.069V139.063H126.046ZM131.262 139.063V132.439H132.333L134.538 136.336L135.231 137.731H135.276C135.213 137.056 135.132 136.246 135.132 135.535V132.439H136.131V139.063H135.051L132.864 135.166L132.171 133.771H132.126C132.171 134.464 132.261 135.22 132.261 135.949V139.063H131.262Z" fill="white"/>
<rect opacity="0.2" x="113.921" y="146.827" width="22.5" height="1.18421" rx="0.592105" fill="#E9E8E8"/>
<rect opacity="0.2" x="113.921" y="149.195" width="22.5" height="1.18421" rx="0.592105" fill="#E9E8E8"/>
<rect opacity="0.2" x="113.921" y="151.563" width="22.5" height="1.18421" rx="0.592105" fill="#E9E8E8"/>
<rect opacity="0.2" x="113.921" y="153.932" width="22.5" height="1.18421" rx="0.592105" fill="#E9E8E8"/>
</g>
<defs>
<filter id="filter0_ii_7681_6844" x="106.941" y="124.267" width="36.1776" height="45.1776" filterUnits="userSpaceOnUse" color-interpolation-filters="sRGB">
<feFlood flood-opacity="0" result="BackgroundImageFix"/>
<feBlend mode="normal" in="SourceGraphic" in2="BackgroundImageFix" result="shape"/>
<feColorMatrix in="SourceAlpha" type="matrix" values="0 0 0 0 0 0 0 0 0 0 0 0 0 0 0 0 0 0 127 0" result="hardAlpha"/>
<feOffset dx="-0.0592105" dy="-0.0592105"/>
<feGaussianBlur stdDeviation="0.118421"/>
<feComposite in2="hardAlpha" operator="arithmetic" k2="-1" k3="1"/>
<feColorMatrix type="matrix" values="0 0 0 0 0 0 0 0 0 0 0 0 0 0 0 0 0 0 0.25 0"/>
<feBlend mode="normal" in2="shape" result="effect1_innerShadow_7681_6844"/>
<feColorMatrix in="SourceAlpha" type="matrix" values="0 0 0 0 0 0 0 0 0 0 0 0 0 0 0 0 0 0 127 0" result="hardAlpha"/>
<feOffset dx="0.118421" dy="0.118421"/>
<feGaussianBlur stdDeviation="0.118421"/>
<feComposite in2="hardAlpha" operator="arithmetic" k2="-1" k3="1"/>
<feColorMatrix type="matrix" values="0 0 0 0 0.761668 0 0 0 0 0.539302 0 0 0 0 0.696901 0 0 0 1 0"/>
<feBlend mode="normal" in2="effect1_innerShadow_7681_6844" result="effect2_innerShadow_7681_6844"/>
</filter>
<radialGradient id="paint0_radial_7681_6844" cx="0" cy="0" r="1" gradientUnits="userSpaceOnUse" gradientTransform="translate(22.7132 118.586) scale(6.48921 6.48931)">
<stop stop-color="#B40029"/>
<stop offset="0.5" stop-color="#B40029"/>
<stop offset="0.752" stop-color="#B10028"/>
<stop offset="0.857" stop-color="#AA0026"/>
<stop offset="0.935" stop-color="#9E0022"/>
<stop offset="1" stop-color="#8D001E"/>
</radialGradient>
<linearGradient id="paint1_linear_7681_6844" x1="20.3923" y1="82.3809" x2="23.6869" y2="91.4154" gradientUnits="userSpaceOnUse">
<stop stop-color="#E87484"/>
<stop offset="0.053" stop-color="#E3687B"/>
<stop offset="0.292" stop-color="#CE3B57"/>
<stop offset="0.504" stop-color="#C01B3E"/>
<stop offset="0.681" stop-color="#B7072E"/>
<stop offset="0.801" stop-color="#B40029"/>
<stop offset="1" stop-color="#B40029"/>
</linearGradient>
<linearGradient id="paint2_linear_7681_6844" x1="18.7966" y1="84.6027" x2="26.2861" y2="92.0965" gradientUnits="userSpaceOnUse">
<stop stop-color="#C12642"/>
<stop offset="0.084" stop-color="#B21D3A"/>
<stop offset="0.245" stop-color="#9E102F"/>
<stop offset="0.427" stop-color="#900727"/>
<stop offset="0.646" stop-color="#870123"/>
<stop offset="1" stop-color="#850022"/>
</linearGradient>
<linearGradient id="paint3_linear_7681_6844" x1="23.1318" y1="87.549" x2="23.2708" y2="87.549" gradientUnits="userSpaceOnUse">
<stop stop-color="#B0B8BD"/>
<stop offset="0.086" stop-color="#A2A9AE"/>
<stop offset="0.522" stop-color="#5F666B"/>
<stop offset="0.839" stop-color="#353C42"/>
<stop offset="1" stop-color="#262C32"/>
</linearGradient>
<linearGradient id="paint4_linear_7681_6844" x1="24.3711" y1="90.2916" x2="24.493" y2="90.2916" gradientUnits="userSpaceOnUse">
<stop stop-color="#AFB6BB"/>
<stop offset="0.118" stop-color="#9BA2A6"/>
<stop offset="0.539" stop-color="#585F63"/>
<stop offset="0.844" stop-color="#2E3539"/>
<stop offset="1" stop-color="#1F2629"/>
</linearGradient>
<linearGradient id="paint5_linear_7681_6844" x1="65.4539" y1="350.938" x2="65.5953" y2="350.938" gradientUnits="userSpaceOnUse">
<stop stop-color="#A6B5BC"/>
<stop offset="1" stop-color="#1C1F24"/>
</linearGradient>
<linearGradient id="paint6_linear_7681_6844" x1="81.9742" y1="341.282" x2="82.1115" y2="341.282" gradientUnits="userSpaceOnUse">
<stop stop-color="#B0B8BD"/>
<stop offset="1" stop-color="#2F363E"/>
</linearGradient>
<linearGradient id="paint7_linear_7681_6844" x1="85.8954" y1="336.013" x2="86.0386" y2="336.013" gradientUnits="userSpaceOnUse">
<stop stop-color="#B0B8BD"/>
<stop offset="1" stop-color="#384149"/>
</linearGradient>
<linearGradient id="paint8_linear_7681_6844" x1="23.1382" y1="82.84" x2="23.258" y2="82.84" gradientUnits="userSpaceOnUse">
<stop stop-color="#AFB6BB"/>
<stop offset="0.118" stop-color="#9BA2A6"/>
<stop offset="0.539" stop-color="#585F63"/>
<stop offset="0.844" stop-color="#2E3539"/>
<stop offset="1" stop-color="#1F2629"/>
</linearGradient>
<radialGradient id="paint9_radial_7681_6844" cx="0" cy="0" r="1" gradientUnits="userSpaceOnUse" gradientTransform="translate(20.8307 85.5929) scale(7.96925 7.96897)">
<stop stop-color="white"/>
<stop offset="0.35" stop-color="white"/>
<stop offset="0.508" stop-color="#FAFBFB"/>
<stop offset="0.672" stop-color="#EEF1F3"/>
<stop offset="0.837" stop-color="#D9E0E4"/>
<stop offset="1" stop-color="#BECAD0"/>
</radialGradient>
<radialGradient id="paint10_radial_7681_6844" cx="0" cy="0" r="1" gradientUnits="userSpaceOnUse" gradientTransform="translate(20.5755 85.5451) scale(1.1659 1.1659)">
<stop stop-color="white"/>
<stop offset="0.35" stop-color="white"/>
<stop offset="0.539" stop-color="#FAFBFC"/>
<stop offset="0.735" stop-color="#EEF2F4"/>
<stop offset="0.933" stop-color="#D9E2E6"/>
<stop offset="1" stop-color="#D1DCE1"/>
</radialGradient>
<clipPath id="clip0_7681_6844">
<rect width="160" height="200" fill="white" transform="translate(0 0.326172)"/>
</clipPath>
</defs>
</svg>
